<svg xmlns="http://www.w3.org/2000/svg" xmlns:xlink="http://www.w3.org/1999/xlink" version="1.1" x="0px" y="0px" viewBox="0 0 1000 1000" enable-background="new 0 0 1000 1000" xml:space="preserve" style="&#10;    fill: #b1b1b1;&#10;">
<metadata> Svg Vector Icons : http://www.sfont.cn </metadata>
<g><g transform="translate(0.000000,511.000000) scale(0.100000,-0.100000)"><path d="M4300.7,4278.6c-967.7-116.8-1894.8-472.4-2628.9-1013.5c-294.6-215.9-767.1-701-960.1-985.5C86.9,1365.2-68.1,262.9,287.5-722.6c152.4-419.1,403.9-843.3,708.7-1193.8l165.1-188l-45.7-78.7c-198.1-330.2-866.1-1592.6-866.1-1638.3c0-73.7,66-195.6,124.5-228.6c27.9-12.7,83.8-25.4,124.5-25.4c38.1,0,599.4,193,1244.6,429.3l1173.5,431.8l185.4-63.5c1049-358.1,2321.6-401.3,3411.2-114.3c2222.5,586.8,3627.2,2352.1,3352.8,4213.9c-114.3,764.5-452.1,1409.7-1054.1,2011.7c-607.1,604.5-1297.9,1000.8-2186.9,1257.3c-525.8,152.4-856,195.6-1524,203.2C4773.2,4298.9,4412.5,4291.3,4300.7,4278.6z M5702.8,3760.5c1079.5-139.7,2029.5-576.6,2712.7-1244.6C9523,1436.4,9700.8-1.3,8880.4-1243.3c-165.1-254-652.8-744.2-922-932.2c-678.2-469.9-1414.8-746.8-2298.7-861.1c-345.4-45.7-1069.4-38.1-1432.6,12.7c-350.5,50.8-777.2,155-1079.5,266.7c-170.2,63.5-226.1,76.2-292.1,55.9c-43.2-12.7-454.7-160-916.9-330.2c-459.7-170.2-843.3-304.8-853.4-302.2c-10.2,5.1,129.5,276.8,309.9,604.5c254,464.8,327.7,617.2,327.7,693.4c0,86.4-22.9,119.4-241.3,350.5C793-958.9,506-118.1,643.1,776C843.8,2112,2035,3234.7,3678.4,3643.6c175.3,43.2,436.9,94,584.2,114.3C4628.4,3806.2,5334.5,3808.7,5702.8,3760.5z"/></g></g>
</svg>